# xmcd CD database file
#
# Track frame offsets:
#	150
#	20372
#	44272
#	68807
#
# Disc length: 1226 seconds
#
# Revision: 1
# Processed by: cddbd v1.5.2PL0 Copyright (c) Steve Scherf et al.
# Submitted via: CDex 1.70beta3
#
DISCID=2b04c804
DTITLE=Riot - Angel Eyes
DYEAR=1997
DGENRE=Hard Rock
TTITLE0=Angel Eyes
TTITLE1=15 Rivers(For EP Only)
TTITLE2=Red Reign(For EP Only)
TTITLE3=Turning The Hands Of Time(For EP Only)
EXTD=YEAR: 1997
EXTT0=
EXTT1=
EXTT2=
EXTT3=
PLAYORDER=
